<?xml version="1.0" encoding="iso-8859-1"?>
<!-- Generator: Adobe Illustrator 19.0.0, SVG Export Plug-In . SVG Version: 6.00 Build 0)  -->
<svg version="1.1" id="Layer_1" xmlns="http://www.w3.org/2000/svg" xmlns:xlink="http://www.w3.org/1999/xlink" x="0px" y="0px"
	 viewBox="0 0 512 512" style="enable-background:new 0 0 512 512;" xml:space="preserve">
<g>
	<g>
		<path d="M497.029,71.731c-23.774-35.529-66.408-36.997-68.209-37.042c-119.925-3.197-149.59,121.815-149.873,123.078
			c-0.87,3.907,0.383,7.986,3.297,10.729c2.909,2.727,7.066,3.747,10.901,2.649c24.523-7.021,42.212-6.833,49.804,0.527
			c7.343,7.11,4.993,20.987,4.433,23.763c-39.452,99.082-63.376,107.539-66.89,108.249c-13.084-7.121-33.118-82.607-43.315-163.916
			c-6.938-49.544-23.558-80.81-49.389-92.93c-27.892-13.068-55.623,1.513-60.544,4.334C80.278,72.712,6.301,149.489,3.158,152.758
			c-4.018,4.19-4.228,10.74-0.482,15.179l23.581,27.936c2.095,2.483,5.148,3.946,8.396,4.023c3.38,0.26,6.368-1.236,8.579-3.607
			c17.612-18.898,27.443-19.812,30.862-19.358c4.761,0.676,7.149,5.27,7.326,5.62c27.354,54.632,46.041,133.087,46.246,133.957
			c36.321,149.042,86.203,160.863,100.894,160.863c1.834,0,3.125-0.183,3.768-0.31c135.525-17.047,255.877-255.633,261.369-266.778
			C516.93,149.765,518.049,103.148,497.029,71.731z M472.944,201.155c-1.186,2.372-119.859,237.839-243.608,253.411
			c-0.277,0.116-44.163,2.023-79.597-143.35c-0.781-3.314-19.463-81.792-47.859-138.49c-0.732-1.585-7.587-15.534-24.013-18.177
			c-1.696-0.272-3.414-0.41-5.154-0.41c-11.483,0-23.88,5.941-37.014,17.728l-9.005-10.668
			c19.668-19.723,75.374-73.767,110.459-89.595c0.416-0.188,0.87-0.432,1.258-0.665c0.211-0.122,20.987-12.452,39.89-3.48
			c18.1,8.606,30.685,34.697,36.377,75.297c6.345,50.641,24.739,169.718,58.466,182.476c2.571,1.003,8.507,2.45,16.836-0.765
			c23.979-9.26,50.497-50.131,78.821-121.466c0.172-0.427,0.316-0.859,0.432-1.302c0.305-1.169,7.343-28.873-10.347-46.191
			c-11.078-10.845-28.49-14.425-51.899-10.723c12.109-30.574,45.388-89.406,121.211-87.406c0.332,0.011,33.001,1.391,50.093,27.166
			C494.596,109.139,492.596,149.804,472.944,201.155z"/>
	</g>
</g>
<g>
</g>
<g>
</g>
<g>
</g>
<g>
</g>
<g>
</g>
<g>
</g>
<g>
</g>
<g>
</g>
<g>
</g>
<g>
</g>
<g>
</g>
<g>
</g>
<g>
</g>
<g>
</g>
<g>
</g>
</svg>
